<svg xmlns="http://www.w3.org/2000/svg" version="1.1" xmlns:xlink="http://www.w3.org/1999/xlink" width="2000" height="2000"><svg xmlns="http://www.w3.org/2000/svg" width="2000" height="2000" viewBox="0 0 2000 2000" version="1.1"><path d="M 1329.445 397.500 C 1329.444 414.550, 1329.581 421.666, 1329.748 413.312 C 1329.915 404.959, 1329.915 391.009, 1329.748 382.312 C 1329.582 373.616, 1329.445 380.450, 1329.445 397.500 M 673.400 479.500 C 673.401 487.750, 673.556 490.992, 673.744 486.704 C 673.932 482.417, 673.931 475.667, 673.742 471.704 C 673.552 467.742, 673.399 471.250, 673.400 479.500 M 1524.882 633.326 C 1515.235 636.919, 1511.039 641.606, 1506.701 653.631 C 1502.538 665.171, 1496.317 698.710, 1489.567 746 C 1488.193 755.625, 1482.351 794.775, 1476.585 833 C 1462.102 929.016, 1461.687 932.165, 1462.297 941.304 C 1463.487 959.115, 1472.490 967.555, 1502 978.522 C 1508.875 981.078, 1532.500 989.256, 1554.500 996.697 C 1595.096 1010.427, 1627.825 1022.340, 1634.979 1025.989 C 1640.524 1028.818, 1642.780 1028.546, 1651.710 1023.967 C 1661.477 1018.959, 1671.396 1011.564, 1686.536 998 C 1708.248 978.550, 1718.206 966.026, 1736.234 935.500 C 1743.055 923.950, 1761.260 893.125, 1776.688 867 C 1811.492 808.069, 1825.805 783.165, 1835.752 764.238 C 1849.335 738.391, 1853.824 727.410, 1854.729 717.815 C 1855.191 712.920, 1854.903 711.510, 1852.654 707.673 C 1849.338 702.014, 1838.248 691.807, 1832.461 689.087 C 1815.164 680.956, 1801.851 693.089, 1758.490 756.500 C 1706.550 832.457, 1695.636 848.341, 1673.632 880 C 1625.283 949.564, 1609.017 970.612, 1597.455 978.576 C 1592.161 982.222, 1591.425 982.433, 1582.671 982.816 C 1564.388 983.615, 1561.658 979.911, 1559.962 952 C 1558.703 931.288, 1559.709 905.069, 1567.154 764.500 C 1569.709 716.253, 1570.247 658.965, 1568.208 652.237 C 1565.775 644.211, 1557.400 637.243, 1546.833 634.456 C 1538.592 632.282, 1529.009 631.789, 1524.882 633.326 M 818.409 744.500 C 818.408 753.850, 818.558 757.810, 818.743 753.299 C 818.928 748.789, 818.929 741.139, 818.745 736.299 C 818.562 731.460, 818.410 735.150, 818.409 744.500 M 862.419 773 C 862.419 783.725, 862.566 788.112, 862.746 782.750 C 862.925 777.388, 862.925 768.612, 862.746 763.250 C 862.566 757.888, 862.419 762.275, 862.419 773 M 1012.750 869.745 C 1017.837 869.927, 1026.162 869.927, 1031.250 869.745 C 1036.338 869.564, 1032.175 869.415, 1022 869.415 C 1011.825 869.415, 1007.663 869.564, 1012.750 869.745 M 667.397 935 C 667.397 942.975, 667.553 946.237, 667.743 942.250 C 667.932 938.263, 667.932 931.737, 667.743 927.750 C 667.553 923.763, 667.397 927.025, 667.397 935 M 1415.846 1003.353 C 1405.874 1006.689, 1396.507 1013.264, 1359.500 1042.904 C 1318.585 1075.675, 1306.009 1090.129, 1301.389 1109.699 C 1298.669 1121.223, 1299.942 1141.330, 1305.429 1173.500 C 1312.865 1217.092, 1314.290 1229.270, 1314.322 1249.500 C 1314.354 1269.334, 1313.268 1276.412, 1307.827 1291.834 C 1303.678 1303.596, 1299.568 1311.520, 1287.286 1331.434 C 1275.766 1350.115, 1271 1358.994, 1271 1361.777 C 1271 1362.786, 1273.462 1366.595, 1276.471 1370.243 C 1305.748 1405.738, 1407.157 1464.124, 1478 1486.274 C 1494.369 1491.392, 1520.409 1497.969, 1527.050 1498.663 C 1538.312 1499.840, 1543.669 1495.552, 1554.868 1476.393 C 1570.621 1449.444, 1576.643 1440.459, 1584 1432.927 C 1593.046 1423.666, 1598.795 1420.581, 1622 1412.532 C 1650.864 1402.521, 1664.419 1396.303, 1681.456 1385.260 C 1711.445 1365.822, 1737.989 1336.708, 1769.221 1289 C 1783.550 1267.111, 1799.305 1240.971, 1798.596 1240.262 C 1798.301 1239.968, 1794.836 1242.375, 1790.897 1245.613 C 1786.957 1248.851, 1780.531 1254.106, 1776.617 1257.291 C 1769.448 1263.124, 1751.992 1272.377, 1742.500 1275.374 C 1732.385 1278.568, 1718.958 1280.260, 1708.500 1279.658 C 1695.961 1278.936, 1688.783 1277.094, 1678 1271.831 C 1658.981 1262.548, 1646 1242.944, 1646 1223.507 C 1646 1216.735, 1643.406 1214.493, 1631.500 1210.973 C 1626 1209.347, 1617.225 1205.921, 1612 1203.359 C 1604.247 1199.557, 1601.007 1197.210, 1594.385 1190.600 C 1585.964 1182.195, 1582.323 1176.360, 1579.553 1166.830 C 1576.889 1157.667, 1575.605 1157.120, 1549.444 1154.018 C 1529.098 1151.606, 1524.408 1151.495, 1523.672 1153.412 C 1523.374 1154.188, 1525.095 1160.601, 1527.495 1167.662 C 1537.623 1197.451, 1537.391 1229.591, 1526.815 1261.703 C 1516.062 1294.354, 1498.417 1309.881, 1482.600 1300.612 C 1477.113 1297.396, 1473.963 1293.143, 1473.276 1288.023 C 1472.593 1282.932, 1473.856 1279.571, 1480.982 1267.523 C 1491.166 1250.301, 1495 1237.175, 1495 1219.523 C 1495 1202.940, 1491.638 1189.078, 1483.874 1173.648 C 1476.581 1159.154, 1470.339 1151.122, 1452.836 1133.713 C 1433.442 1114.423, 1430 1110.141, 1430 1105.310 C 1430 1100.622, 1433.450 1094.306, 1437.290 1091.965 C 1442.854 1088.572, 1449.592 1089.480, 1473.788 1096.885 C 1490.553 1102.015, 1516.689 1108.428, 1531 1110.923 C 1571.302 1117.948, 1593.242 1115.208, 1608.121 1101.290 C 1618.512 1091.570, 1621.452 1077.576, 1615.611 1065.637 C 1612.357 1058.987, 1608.697 1055.700, 1602.281 1053.665 C 1565.795 1042.094, 1544.717 1035.261, 1502.850 1021.430 C 1475.542 1012.409, 1449.312 1004.122, 1444.561 1003.014 C 1433.368 1000.404, 1424.341 1000.511, 1415.846 1003.353 M 1751 1006.692 C 1738.859 1008.729, 1724.783 1017.314, 1696.583 1039.880 C 1673.374 1058.452, 1659 1073.559, 1659 1079.380 C 1659 1088.339, 1651.977 1105.297, 1643.214 1117.500 C 1640.449 1121.350, 1634.774 1128.219, 1630.603 1132.765 C 1621.387 1142.809, 1618 1149.034, 1618 1155.932 C 1618 1160.057, 1618.523 1161.526, 1620.993 1164.339 C 1624.906 1168.795, 1632.548 1172.001, 1640.838 1172.663 L 1647.500 1173.195 1656.500 1167.510 C 1687.171 1148.137, 1755.337 1093.501, 1781.584 1067.254 C 1792.268 1056.570, 1796.163 1049.650, 1796.808 1040.211 C 1797.359 1032.144, 1795.742 1026.503, 1791.162 1020.512 C 1782.950 1009.771, 1766.462 1004.097, 1751 1006.692 M 1827.971 1091.442 C 1814.873 1096.269, 1797.094 1108.278, 1765.500 1133.636 C 1723.843 1167.072, 1703.490 1184.385, 1696.117 1192.658 C 1689.754 1199.797, 1686.999 1205.528, 1687.006 1211.610 C 1687.026 1229.526, 1700.795 1242, 1720.552 1242 C 1729.984 1242, 1734.060 1240.439, 1745.763 1232.346 C 1798.399 1195.947, 1835.839 1161.722, 1850.207 1136.873 C 1856.403 1126.158, 1857.640 1120.269, 1855.467 1111.843 C 1853.257 1103.272, 1848.253 1094.126, 1844.532 1091.857 C 1840.971 1089.685, 1833.261 1089.492, 1827.971 1091.442 M 907.378 1669 C 907.378 1675.325, 907.541 1677.912, 907.739 1674.750 C 907.937 1671.588, 907.937 1666.412, 907.739 1663.250 C 907.541 1660.088, 907.378 1662.675, 907.378 1669 M 961.374 1689.500 C 961.376 1695.550, 961.541 1697.896, 961.740 1694.713 C 961.939 1691.531, 961.937 1686.581, 961.736 1683.713 C 961.535 1680.846, 961.372 1683.450, 961.374 1689.500 M 591.423 1704.500 C 591.424 1716.050, 591.570 1720.638, 591.747 1714.696 C 591.924 1708.753, 591.923 1699.303, 591.745 1693.696 C 591.567 1688.088, 591.422 1692.950, 591.423 1704.500 M 644.409 1727.500 C 644.408 1736.850, 644.558 1740.810, 644.743 1736.299 C 644.928 1731.789, 644.929 1724.139, 644.745 1719.299 C 644.562 1714.460, 644.410 1718.150, 644.409 1727.500 M 656.750 1749.743 C 660.737 1749.932, 667.263 1749.932, 671.250 1749.743 C 675.237 1749.553, 671.975 1749.397, 664 1749.397 C 656.025 1749.397, 652.763 1749.553, 656.750 1749.743 M 975.299 1749.745 C 980.139 1749.929, 987.789 1749.928, 992.299 1749.743 C 996.810 1749.558, 992.850 1749.408, 983.500 1749.409 C 974.150 1749.410, 970.460 1749.562, 975.299 1749.745 M 908.392 1767 C 908.392 1774.425, 908.549 1777.463, 908.742 1773.750 C 908.934 1770.037, 908.934 1763.963, 908.742 1760.250 C 908.549 1756.537, 908.392 1759.575, 908.392 1767 M 656.750 1787.743 C 660.737 1787.932, 667.263 1787.932, 671.250 1787.743 C 675.237 1787.553, 671.975 1787.397, 664 1787.397 C 656.025 1787.397, 652.763 1787.553, 656.750 1787.743 M 974.797 1787.745 C 979.361 1787.930, 986.561 1787.929, 990.797 1787.742 C 995.034 1787.555, 991.300 1787.404, 982.500 1787.405 C 973.700 1787.406, 970.234 1787.559, 974.797 1787.745 M 591.405 1817.500 C 591.406 1826.300, 591.559 1829.766, 591.745 1825.203 C 591.930 1820.639, 591.929 1813.439, 591.742 1809.203 C 591.555 1804.966, 591.404 1808.700, 591.405 1817.500 M 961.389 1834.500 C 961.390 1841.650, 961.550 1844.444, 961.742 1840.708 C 961.935 1836.973, 961.934 1831.123, 961.739 1827.708 C 961.545 1824.294, 961.387 1827.350, 961.389 1834.500 M 907.374 1846.500 C 907.376 1852.550, 907.541 1854.896, 907.740 1851.713 C 907.939 1848.531, 907.937 1843.581, 907.736 1840.713 C 907.535 1837.846, 907.372 1840.450, 907.374 1846.500" stroke="none" fill="#49b0b9" fill-rule="evenodd"></path><path d="M 384.948 680.302 C 376.809 683.524, 367.290 690.650, 364.294 695.761 C 362.103 699.500, 361.809 700.956, 362.254 705.867 C 362.540 709.022, 364.202 715.180, 365.947 719.552 C 369.277 727.892, 379.496 746.488, 386.108 756.239 C 388.249 759.395, 390 762.395, 390 762.905 C 390 763.416, 390.369 763.983, 390.819 764.167 C 392.075 764.677, 400.184 776.996, 399.287 777.030 C 398.854 777.047, 399.297 777.525, 400.271 778.092 C 401.245 778.659, 401.810 779.498, 401.527 779.957 C 401.243 780.415, 401.712 781.059, 402.569 781.388 C 403.426 781.717, 403.876 782.392, 403.569 782.888 C 403.262 783.384, 403.712 784.059, 404.569 784.388 C 405.426 784.717, 405.876 785.392, 405.569 785.888 C 405.262 786.384, 405.748 787.073, 406.649 787.419 C 407.549 787.764, 408.004 788.329, 407.659 788.675 C 407.314 789.020, 407.640 789.797, 408.385 790.401 C 410.778 792.344, 432.966 825.701, 432.305 826.362 C 431.954 826.713, 432.135 827, 432.708 827 C 433.933 827, 444.503 841.986, 443.310 842.030 C 442.864 842.047, 443.297 842.525, 444.271 843.092 C 445.245 843.659, 445.781 844.545, 445.462 845.061 C 445.143 845.578, 445.324 846, 445.864 846 C 447.056 846, 456.309 859.010, 456.323 860.706 C 456.329 861.369, 456.614 861.739, 456.956 861.527 C 457.738 861.044, 463.599 870.203, 463.225 871.324 C 463.074 871.778, 463.412 871.864, 463.975 871.515 C 464.953 870.911, 465.467 872.359, 465.035 874.500 C 464.924 875.050, 465.170 875.164, 465.581 874.753 C 466.225 874.109, 479 891.975, 479 893.520 C 479 893.830, 479.487 894.628, 480.082 895.292 C 482.396 897.874, 499.936 925.397, 499.528 925.806 C 499.290 926.044, 499.716 926.859, 500.476 927.618 C 503.429 930.572, 506.067 939.984, 505.586 945.853 C 505.200 950.559, 504.622 951.948, 502.115 954.188 C 498.969 957, 492.403 959.367, 490.689 958.308 C 490.127 957.960, 490.002 958.195, 490.405 958.845 C 491.599 960.778, 483.336 960.215, 479.210 958.083 C 477.170 957.028, 473.657 954.215, 471.405 951.833 C 466.431 946.569, 455.667 931.231, 455.667 929.405 C 455.667 928.681, 455.339 928.291, 454.938 928.538 C 454.097 929.058, 452.565 925.986, 452.925 924.500 C 453.058 923.950, 452.831 923.836, 452.421 924.246 C 451.648 925.019, 445 915.875, 445 914.039 C 445 913.468, 444.550 913, 444 913 C 443.450 913, 443 912.531, 443 911.958 C 443 911.385, 442.528 910.372, 441.951 909.708 C 439.164 906.497, 382.965 823.970, 356.007 783.500 C 349.778 774.150, 344.304 766.350, 343.841 766.167 C 343.379 765.983, 343 765.196, 343 764.417 C 343 763.638, 342.550 763, 342 763 C 341.450 763, 341 762.325, 341 761.500 C 341 760.675, 340.550 760, 340 760 C 339.450 760, 339 759.325, 339 758.500 C 339 757.675, 338.550 757, 338 757 C 337.450 757, 337 756.362, 337 755.583 C 337 754.804, 336.647 754.017, 336.216 753.833 C 335.311 753.449, 320 731.396, 320 730.478 C 320 729.648, 314.687 722.583, 313.750 722.167 C 313.337 721.983, 313 721.196, 313 720.417 C 313 719.638, 312.619 719, 312.153 719 C 311.687 719, 310.899 718.151, 310.403 717.114 C 306.537 709.037, 283.137 683.877, 279.024 683.375 C 278.461 683.306, 277.298 683.194, 276.441 683.125 C 275.531 683.052, 275.179 682.519, 275.595 681.845 C 276.014 681.168, 275.872 680.961, 275.251 681.345 C 274.669 681.704, 271.471 681.626, 268.144 681.171 C 264.817 680.716, 262.325 680.717, 262.606 681.172 C 262.888 681.627, 261.692 682, 259.949 682 C 254.654 682, 240 690.888, 240 694.099 C 240 694.660, 239.539 694.833, 238.975 694.485 C 238.412 694.136, 238.069 694.222, 238.213 694.676 C 238.604 695.902, 235.870 702.037, 235.134 701.586 C 234.785 701.372, 234.361 703.870, 234.190 707.137 C 233.866 713.361, 235.971 722.500, 238.684 726.640 C 239.534 727.938, 239.841 729.007, 239.365 729.015 C 238.889 729.024, 239.004 729.361, 239.621 729.765 C 240.238 730.169, 242.205 733.425, 243.993 737 C 245.781 740.575, 250.789 749.827, 255.122 757.561 C 259.455 765.294, 263 772.119, 263 772.727 C 263 773.336, 263.358 773.983, 263.795 774.167 C 264.232 774.350, 265.556 776.376, 266.737 778.670 C 271.811 788.524, 333.200 888.765, 368.267 944.458 C 368.945 945.535, 369.989 946.956, 370.587 947.616 C 373.587 950.930, 394.189 985.142, 397.254 991.902 C 399.923 997.787, 400.782 1003.383, 399.931 1009.352 C 399.785 1010.370, 397.460 1013.618, 394.762 1016.570 C 389.386 1022.452, 385.062 1024.097, 380.233 1022.097 C 376.198 1020.425, 356 998.980, 356 996.368 C 356 995.733, 355.325 994.955, 354.500 994.638 C 353.675 994.322, 353 993.626, 353 993.093 C 353 992.560, 351.704 990.705, 350.120 988.970 C 348.536 987.236, 346.624 984.645, 345.870 983.212 C 345.117 981.779, 343.488 979.505, 342.250 978.157 C 341.012 976.810, 340 975.347, 340 974.905 C 340 974.464, 338.875 972.889, 337.500 971.405 C 336.125 969.922, 335 968.347, 335 967.905 C 335 967.464, 333.892 965.907, 332.537 964.445 C 331.182 962.983, 329.497 960.485, 328.793 958.894 C 328.088 957.302, 327.235 956, 326.897 956 C 326.061 956, 319 945.285, 319 944.015 C 319 943.457, 318.629 943, 318.177 943 C 317.127 943, 307.416 928.824, 307.750 927.780 C 307.888 927.351, 307.614 927, 307.142 927 C 306.362 927, 299 916.661, 299 915.567 C 299 915.312, 297.875 913.889, 296.500 912.405 C 295.125 910.922, 294 909.136, 294 908.437 C 294 907.738, 293.663 907.017, 293.250 906.833 C 292.837 906.650, 290.048 902.900, 287.052 898.500 C 284.056 894.100, 281.243 890.350, 280.802 890.167 C 280.361 889.983, 280 889.196, 280 888.417 C 280 887.637, 279.550 887, 279 887 C 278.450 887, 278 886.362, 278 885.583 C 278 884.804, 277.625 884.017, 277.167 883.833 C 276.709 883.650, 274.695 881.025, 272.691 878 C 270.687 874.975, 268.264 871.375, 267.306 870 C 266.348 868.625, 261.962 862.325, 257.558 856 C 253.155 849.675, 248.528 843.380, 247.276 842.010 C 246.024 840.641, 245 839.174, 245 838.751 C 245 837.926, 234.502 823.428, 232.227 821.110 C 231.476 820.345, 230.117 818.545, 229.205 817.110 C 228.294 815.674, 226.975 814.140, 226.274 813.700 C 225.573 813.260, 225 812.473, 225 811.950 C 225 811.428, 224.213 810.180, 223.250 809.178 C 222.287 808.177, 220.150 805.665, 218.500 803.597 C 215.991 800.452, 210.769 795.176, 201.043 785.958 C 198.485 783.534, 190.301 779.999, 187.261 780.006 C 182.558 780.015, 176.902 781.980, 166.149 787.340 C 157.420 791.692, 155.423 793.140, 153.399 796.588 C 150.728 801.139, 148.645 810, 150.246 810 C 150.789 810, 150.998 810.900, 150.711 811.999 C 150.423 813.098, 150.603 814.255, 151.110 814.568 C 151.618 814.882, 151.820 815.482, 151.560 815.902 C 150.205 818.096, 172.770 856.840, 189.475 881 C 200.743 897.297, 224 931.942, 224 932.431 C 224 932.687, 225.108 934.093, 226.463 935.555 C 227.818 937.017, 229.503 939.515, 230.207 941.106 C 230.912 942.698, 231.828 944, 232.244 944 C 232.660 944, 233 944.403, 233 944.895 C 233 945.386, 245.825 964.997, 261.500 988.474 C 277.175 1011.950, 290 1031.535, 290 1031.996 C 290 1032.457, 290.369 1032.983, 290.819 1033.167 C 292.116 1033.694, 300.333 1046.238, 300.333 1047.691 C 300.333 1048.411, 300.659 1049, 301.058 1049 C 301.998 1049, 315.631 1069.900, 316.945 1073.355 C 317.497 1074.808, 317.920 1079.162, 317.884 1083.030 C 317.827 1089.118, 317.463 1090.484, 315.180 1093.198 C 311.905 1097.089, 300.657 1102.366, 297.077 1101.689 C 289.533 1100.264, 287.643 1099.387, 288.638 1097.776 C 289.007 1097.179, 288.855 1096.972, 288.300 1097.315 C 287.002 1098.117, 282.735 1093.624, 283.741 1092.515 C 284.158 1092.056, 284.009 1091.959, 283.409 1092.300 C 282.438 1092.853, 277.865 1087.893, 278.025 1086.460 C 278.059 1086.147, 277.056 1085.031, 275.794 1083.979 C 274.532 1082.927, 273.786 1082.052, 274.135 1082.033 C 274.484 1082.015, 273.316 1080.413, 271.540 1078.474 C 269.763 1076.534, 267.678 1073.722, 266.905 1072.224 C 266.132 1070.726, 264.488 1068.380, 263.250 1067.010 C 262.012 1065.641, 261 1064.159, 261 1063.717 C 261 1063.274, 259.875 1061.699, 258.500 1060.217 C 257.125 1058.734, 256 1057.146, 256 1056.689 C 256 1056.231, 255.437 1055.230, 254.750 1054.463 C 251.782 1051.154, 251 1050.023, 251 1049.042 C 251 1048.469, 250.550 1048, 250 1048 C 249.450 1048, 249 1047.530, 249 1046.956 C 249 1046.382, 247.918 1044.746, 246.596 1043.320 C 245.274 1041.894, 243.587 1039.552, 242.848 1038.114 C 242.108 1036.676, 241.233 1035.275, 240.904 1035 C 239.057 1033.460, 230.237 1020.096, 230.738 1019.596 C 231.065 1019.268, 230.868 1019, 230.300 1019 C 229.138 1019, 223.440 1010.915, 223.781 1009.750 C 223.901 1009.337, 223.567 1009, 223.037 1009 C 221.578 1009, 213.987 997.370, 214.795 996.371 C 215.183 995.892, 215.097 995.828, 214.604 996.229 C 213.520 997.111, 203.957 983.880, 204.750 982.595 C 205.058 982.098, 204.872 981.961, 204.338 982.291 C 203.328 982.915, 199.350 977.122, 199.795 975.676 C 199.935 975.222, 199.636 975.107, 199.130 975.420 C 198.204 975.992, 196.524 973.212, 196.866 971.676 C 196.967 971.222, 196.636 971.107, 196.130 971.420 C 195.204 971.992, 193.524 969.212, 193.866 967.676 C 193.967 967.222, 193.636 967.107, 193.130 967.420 C 192.142 968.030, 190.524 965.154, 190.925 963.500 C 191.058 962.950, 190.832 962.835, 190.423 963.244 C 189.741 963.925, 186.173 959.905, 186.820 959.184 C 186.976 959.011, 185.955 957.966, 184.552 956.862 C 183.148 955.758, 182 954.466, 182 953.990 C 182 951.094, 163.269 933.332, 156.762 930.058 C 151.138 927.229, 150.910 927.199, 145.262 928.552 C 136.850 930.567, 130.767 934.069, 125.628 939.856 C 120.934 945.141, 119.704 947.017, 118.004 951.490 C 117.341 953.233, 117.341 953.907, 118.003 953.498 C 118.551 953.159, 119 953.738, 119 954.784 C 119 960.315, 128.645 981.078, 139.900 999.776 C 143.302 1005.428, 145.772 1010.560, 145.388 1011.180 C 144.962 1011.870, 145.140 1012.032, 145.845 1011.595 C 146.894 1010.948, 147.464 1012.194, 147.094 1014.324 C 147.015 1014.778, 147.319 1014.921, 147.769 1014.643 C 148.599 1014.130, 158.785 1030.033, 158.160 1030.867 C 157.974 1031.116, 158.546 1031.726, 159.431 1032.222 C 160.317 1032.717, 160.810 1033.498, 160.527 1033.957 C 160.243 1034.415, 160.712 1035.059, 161.569 1035.388 C 162.426 1035.717, 162.847 1036.439, 162.504 1036.993 C 162.162 1037.547, 162.359 1038, 162.941 1038 C 163.523 1038, 164 1038.675, 164 1039.500 C 164 1040.325, 164.450 1041, 165 1041 C 165.550 1041, 166 1041.675, 166 1042.500 C 166 1043.325, 166.450 1044, 167 1044 C 167.550 1044, 168 1044.423, 168 1044.940 C 168 1045.928, 211.101 1112.058, 218.634 1122.627 C 221.035 1125.997, 223 1129.259, 223 1129.877 C 223 1130.495, 223.450 1131, 224 1131 C 224.550 1131, 225 1131.675, 225 1132.500 C 225 1133.325, 225.450 1134, 226 1134 C 226.550 1134, 227 1134.675, 227 1135.500 C 227 1136.325, 227.450 1137, 228 1137 C 228.550 1137, 229 1137.450, 229 1138 C 229 1138.551, 231.925 1143.226, 235.500 1148.389 C 239.075 1153.552, 242 1158.277, 242 1158.888 C 242 1159.500, 242.450 1160, 243 1160 C 243.550 1160, 244 1160.638, 244 1161.417 C 244 1162.196, 244.378 1162.983, 244.840 1163.167 C 246.086 1163.661, 266.161 1193.995, 265.266 1194.030 C 264.845 1194.047, 265.297 1194.525, 266.271 1195.092 C 267.245 1195.659, 267.810 1196.498, 267.527 1196.957 C 267.243 1197.415, 267.712 1198.059, 268.569 1198.388 C 269.426 1198.717, 269.876 1199.392, 269.569 1199.888 C 269.262 1200.384, 269.712 1201.059, 270.569 1201.388 C 271.426 1201.717, 271.876 1202.392, 271.569 1202.888 C 271.262 1203.384, 271.712 1204.059, 272.569 1204.388 C 273.426 1204.717, 273.876 1205.392, 273.569 1205.888 C 273.262 1206.384, 273.712 1207.059, 274.569 1207.388 C 275.426 1207.717, 275.876 1208.392, 275.569 1208.888 C 275.262 1209.384, 275.712 1210.059, 276.569 1210.388 C 277.426 1210.717, 277.876 1211.392, 277.569 1211.888 C 277.262 1212.384, 277.712 1213.059, 278.569 1213.388 C 279.426 1213.717, 279.876 1214.392, 279.569 1214.888 C 279.262 1215.384, 279.712 1216.059, 280.569 1216.388 C 281.426 1216.717, 281.847 1217.439, 281.504 1217.993 C 281.162 1218.547, 281.290 1219, 281.788 1219 C 283.075 1219, 297.067 1239.599, 296.301 1240.366 C 295.952 1240.715, 296.153 1241, 296.747 1241 C 298.181 1241, 315.595 1265.938, 315.167 1267.378 C 314.983 1267.995, 315.156 1268.177, 315.551 1267.782 C 316.477 1266.857, 323.972 1277.207, 323.242 1278.405 C 322.939 1278.902, 323.163 1279.017, 323.741 1278.660 C 324.695 1278.071, 325.614 1279.235, 325.829 1281.304 C 325.875 1281.746, 326.944 1282.969, 328.206 1284.021 C 329.468 1285.073, 330.113 1285.948, 329.639 1285.967 C 329.166 1285.985, 329.841 1286.885, 331.139 1287.967 C 332.438 1289.048, 333.113 1289.948, 332.639 1289.967 C 332.166 1289.985, 332.841 1290.885, 334.139 1291.967 C 335.438 1293.048, 336.102 1293.948, 335.615 1293.967 C 335.128 1293.985, 335.920 1294.936, 337.375 1296.080 C 338.829 1297.224, 339.763 1298.574, 339.451 1299.080 C 339.138 1299.586, 339.305 1300, 339.821 1300 C 340.338 1300, 343.054 1303.037, 345.856 1306.750 C 363.228 1329.760, 384.689 1351.260, 404.597 1365.596 C 418.705 1375.755, 437.832 1384.927, 452.500 1388.568 C 454.150 1388.978, 455.950 1389.441, 456.500 1389.598 C 460.927 1390.860, 468.162 1392.253, 476 1393.351 C 482.560 1394.270, 491.875 1397.341, 495.308 1399.717 C 500.163 1403.077, 508.870 1414.629, 517.479 1429.135 C 521.189 1435.386, 525.060 1441.701, 526.082 1443.168 C 527.103 1444.635, 529.588 1448.890, 531.603 1452.623 C 533.619 1456.357, 535.882 1460.025, 536.633 1460.775 C 537.383 1461.526, 538.271 1463.233, 538.607 1464.570 C 538.942 1465.906, 539.521 1467, 539.893 1467 C 540.266 1467, 541.904 1469.588, 543.535 1472.750 C 545.166 1475.912, 546.775 1478.725, 547.110 1479 C 547.446 1479.275, 548.436 1480.896, 549.309 1482.602 C 551.448 1486.778, 557.553 1492.002, 560.285 1491.992 C 562.222 1491.986, 568.189 1491.138, 578.500 1489.403 C 583.775 1488.516, 597.374 1484.968, 601.250 1483.468 C 603.312 1482.669, 605 1482.231, 605 1482.494 C 605 1482.756, 607.250 1482.084, 610 1481 C 612.750 1479.916, 615 1479.303, 615 1479.637 C 615 1479.971, 615.675 1479.685, 616.500 1479 C 617.325 1478.315, 618 1478.090, 618 1478.500 C 618 1478.910, 618.563 1478.778, 619.250 1478.207 C 619.938 1477.637, 620.725 1477.163, 621 1477.155 C 621.275 1477.147, 622.799 1476.647, 624.386 1476.043 C 625.974 1475.440, 627.999 1474.812, 628.886 1474.649 C 629.774 1474.486, 632.285 1473.580, 634.466 1472.637 C 636.647 1471.693, 639.122 1470.788, 639.966 1470.626 C 640.810 1470.463, 642.625 1469.851, 644 1469.266 C 645.375 1468.680, 650.100 1466.769, 654.500 1465.020 C 672.245 1457.964, 705.763 1439.431, 720.531 1428.509 C 724.639 1425.471, 728 1423.300, 728 1423.684 C 728 1424.068, 728.563 1423.700, 729.250 1422.866 C 731.413 1420.242, 743.688 1411.029, 744.359 1411.526 C 744.712 1411.787, 744.804 1411.729, 744.565 1411.398 C 744.325 1411.067, 747.388 1408.027, 751.370 1404.642 C 765.240 1392.855, 774.614 1383.958, 781.991 1375.576 C 786.076 1370.936, 789.785 1367.367, 790.234 1367.644 C 790.682 1367.922, 790.926 1367.717, 790.775 1367.190 C 790.624 1366.663, 792.637 1363.304, 795.250 1359.725 C 799.569 1353.808, 800 1352.712, 800 1347.650 C 800 1340.631, 795.069 1330.668, 783.346 1314 C 768.999 1293.601, 763.126 1284.605, 763.628 1283.794 C 763.897 1283.357, 763.693 1283, 763.174 1283 C 762.004 1283, 758.667 1278.024, 758.667 1276.281 C 758.667 1275.576, 758.369 1275, 758.004 1275 C 757.247 1275, 753.009 1266.263, 752.669 1264 C 752.545 1263.175, 752.170 1262.050, 751.834 1261.500 C 750.840 1259.868, 751.055 1248.778, 752.154 1245 C 754.345 1237.470, 758.334 1228.088, 759.134 1228.583 C 759.598 1228.869, 759.731 1228.464, 759.431 1227.681 C 759.131 1226.898, 759.510 1225.633, 760.273 1224.870 C 761.036 1224.107, 761.492 1222.976, 761.286 1222.357 C 761.079 1221.738, 761.493 1220.617, 762.205 1219.866 C 762.917 1219.115, 763.657 1217.600, 763.850 1216.500 C 764.042 1215.400, 764.717 1214.169, 765.350 1213.765 C 765.982 1213.361, 766.169 1213.024, 765.765 1213.015 C 765.053 1213, 767.578 1205.778, 770.536 1199.368 C 772.496 1195.122, 776.637 1177.409, 778.104 1167 C 780.171 1152.327, 779.432 1117.879, 776.483 1091.500 C 776.298 1089.850, 775.840 1085.575, 775.463 1082 C 775.087 1078.425, 774.642 1074.375, 774.475 1073 C 774.307 1071.625, 773.923 1068.475, 773.621 1066 C 773.318 1063.525, 772.825 1059.475, 772.524 1057 C 772.223 1054.525, 771.754 1050.925, 771.480 1049 C 771.207 1047.075, 770.732 1043.475, 770.424 1041 C 769.829 1036.216, 769.287 1032.180, 768.476 1026.502 C 767.405 1019.009, 766.841 1014.681, 765.475 1003.500 C 765.139 1000.750, 764.665 997.038, 764.420 995.251 C 763.264 986.801, 763.056 985.236, 762.587 981.500 C 762.312 979.300, 761.811 975.250, 761.475 972.500 C 761.139 969.750, 760.700 966.150, 760.498 964.500 C 760.296 962.850, 759.698 958.350, 759.169 954.500 C 758.640 950.650, 758.171 946.825, 758.126 946 C 758.081 945.175, 757.785 942.475, 757.466 940 C 757.148 937.525, 756.742 934.150, 756.565 932.500 C 756.387 930.850, 755.956 927.925, 755.607 926 C 755.258 924.075, 754.763 920.025, 754.508 917 C 754.253 913.975, 753.366 906.856, 752.537 901.181 C 751.708 895.506, 750.770 887.856, 750.452 884.181 C 750.134 880.506, 749.654 875.700, 749.386 873.500 C 749.118 871.300, 748.725 867.925, 748.512 866 C 747.280 854.836, 746.825 851.796, 745.372 845 C 742.947 833.662, 740.283 827.338, 736.925 824.947 C 735.303 823.792, 734.230 822.437, 734.540 821.935 C 734.850 821.433, 734.332 821.319, 733.388 821.681 C 732.401 822.060, 731.923 821.934, 732.263 821.384 C 732.939 820.290, 732.377 820.187, 721.500 819.418 C 717.091 819.106, 710.807 819.358, 707.500 819.979 C 704.200 820.599, 700.734 821.179, 699.798 821.267 C 698.861 821.356, 698.298 821.631, 698.545 821.878 C 698.792 822.125, 696.970 823.491, 694.496 824.914 C 689.863 827.578, 679 837.600, 679 839.211 C 679 839.710, 678.480 839.797, 677.845 839.405 C 677.143 838.970, 676.962 839.129, 677.383 839.811 C 677.764 840.427, 677.184 842.679, 676.095 844.814 C 670.379 856.018, 667.910 890.927, 667.922 960.367 C 667.929 1002.198, 667.711 1009.658, 666.407 1012.180 C 665.569 1013.801, 658.888 1021.286, 651.560 1028.813 C 628.747 1052.250, 622.510 1060.469, 611.012 1082.252 C 607.891 1088.165, 604.964 1092.665, 604.508 1092.252 C 604.052 1091.838, 604.006 1092.067, 604.404 1092.759 C 605.406 1094.499, 604.102 1098.181, 602.773 1097.360 C 602.178 1096.992, 601.966 1097.136, 602.303 1097.680 C 603.089 1098.954, 600.947 1106, 599.773 1106 C 599.283 1106, 599.127 1106.397, 599.427 1106.883 C 599.728 1107.368, 599.122 1110.238, 598.083 1113.260 C 597.043 1116.282, 595.660 1122.072, 595.009 1126.127 C 593.148 1137.725, 592.081 1169.396, 593.262 1178 C 594.338 1185.850, 592.935 1197, 590.870 1197 C 590.327 1197, 590.088 1197.338, 590.340 1197.750 C 591.484 1199.627, 587.285 1205.607, 583.500 1207.489 C 578.126 1210.161, 570.349 1210.197, 568.419 1207.559 C 567.639 1206.491, 567 1205.924, 567 1206.299 C 567 1206.674, 566.010 1206.197, 564.800 1205.240 C 553.725 1196.479, 549.852 1185.684, 549.653 1163.020 C 549.546 1150.926, 550.521 1137.583, 551.644 1135.767 C 552.266 1134.761, 553.075 1130.336, 553.106 1127.770 C 553.118 1126.818, 553.529 1125.791, 554.020 1125.488 C 554.511 1125.184, 554.677 1124.321, 554.388 1123.569 C 554.100 1122.817, 554.325 1121.917, 554.888 1121.569 C 555.452 1121.221, 555.677 1120.321, 555.388 1119.569 C 555.100 1118.817, 555.352 1117.901, 555.948 1117.532 C 556.545 1117.163, 556.797 1116.481, 556.509 1116.015 C 556.221 1115.549, 556.514 1113.893, 557.159 1112.334 C 557.804 1110.775, 558.426 1109.162, 558.541 1108.750 C 558.656 1108.338, 558.862 1107.775, 559 1107.500 C 559.138 1107.225, 559.362 1106.550, 559.500 1106 C 559.638 1105.450, 559.862 1104.775, 560 1104.500 C 560.138 1104.225, 560.362 1103.550, 560.500 1103 C 560.638 1102.450, 560.862 1101.775, 561 1101.500 C 561.138 1101.225, 561.362 1100.550, 561.500 1100 C 561.638 1099.450, 561.840 1098.888, 561.949 1098.750 C 562.059 1098.612, 562.352 1097.390, 562.601 1096.034 C 562.850 1094.677, 563.727 1092.540, 564.550 1091.284 C 565.373 1090.028, 565.785 1089, 565.467 1089 C 565.148 1089, 565.519 1087.763, 566.292 1086.250 C 567.064 1084.737, 568.389 1081.925, 569.236 1080 C 571.652 1074.507, 577.978 1061.955, 580.870 1056.917 C 582.316 1054.396, 584.577 1050.346, 585.894 1047.917 C 587.211 1045.487, 589.282 1042.150, 590.496 1040.500 C 591.711 1038.850, 592.959 1036.825, 593.271 1036 C 594.456 1032.864, 603.708 1021.042, 604.420 1021.754 C 604.831 1022.164, 605.017 1021.972, 604.833 1021.328 C 604.505 1020.173, 613.305 1009.038, 621.885 999.751 C 625.491 995.847, 626.273 994.313, 626.273 991.139 C 626.273 986.590, 621.217 975.598, 614.623 965.814 C 612.145 962.137, 609.458 957.862, 608.653 956.314 C 607.847 954.766, 606.060 952.194, 604.682 950.598 C 603.303 949.002, 601.574 946.527, 600.838 945.098 C 600.102 943.669, 598.487 941.380, 597.250 940.010 C 596.013 938.641, 595 936.953, 595 936.260 C 595 935.567, 594.550 935, 594 935 C 593.450 935, 593 934.325, 593 933.500 C 593 932.675, 592.550 932, 592 932 C 591.450 932, 591 931.325, 591 930.500 C 591 929.675, 590.550 929, 590 929 C 589.450 929, 589 928.573, 589 928.052 C 589 927.530, 587.875 925.889, 586.500 924.405 C 585.125 922.922, 584 921.099, 584 920.354 C 584 919.609, 583.550 919, 583 919 C 582.450 919, 582 918.530, 582 917.956 C 582 917.382, 580.875 915.699, 579.500 914.217 C 578.125 912.734, 577 910.991, 577 910.344 C 577 909.696, 576.655 909.017, 576.233 908.833 C 575.333 908.442, 568 898.497, 568 897.668 C 568 897.357, 566.875 895.889, 565.500 894.405 C 564.125 892.922, 563 891.347, 563 890.905 C 563 890.464, 561.972 888.994, 560.715 887.637 C 559.458 886.281, 557.771 883.920, 556.965 882.389 C 556.159 880.859, 554.487 878.505, 553.250 877.157 C 552.013 875.810, 551 874.304, 551 873.810 C 551 873.317, 549.866 871.695, 548.480 870.206 C 547.094 868.718, 545.409 866.263, 544.736 864.750 C 544.063 863.237, 543.231 862, 542.889 862 C 542.277 862, 536.493 853.717, 536.795 853.274 C 536.879 853.149, 535.835 851.846, 534.474 850.378 C 533.113 848.909, 532 847.099, 532 846.354 C 532 845.609, 531.626 845, 531.168 845 C 530.125 845, 517.428 826.773, 517.758 825.750 C 517.891 825.337, 517.620 825, 517.156 825 C 516.055 825, 505.423 809.937, 505.750 808.840 C 505.888 808.378, 505.572 808, 505.048 808 C 503.626 808, 497.967 799.379, 498.789 798.467 C 499.180 798.034, 499.020 797.952, 498.433 798.285 C 497.380 798.884, 493.327 793.202, 493.771 791.750 C 493.897 791.337, 493.572 791, 493.048 791 C 492.524 791, 490.703 788.975, 489 786.500 C 487.297 784.025, 486.106 782, 486.353 782 C 486.600 782, 485.499 780.604, 483.905 778.898 C 482.311 777.192, 481.300 775.323, 481.658 774.744 C 482.016 774.165, 481.872 773.961, 481.338 774.291 C 480.328 774.915, 476.350 769.122, 476.795 767.676 C 476.935 767.222, 476.671 767.085, 476.208 767.371 C 475.321 767.920, 471.378 762.036, 471.771 760.750 C 471.897 760.337, 471.572 760, 471.048 760 C 470.188 760, 464.500 752.498, 464.071 750.799 C 463.974 750.414, 462.555 748.665, 460.918 746.912 C 459.281 745.159, 458.120 743.546, 458.339 743.328 C 458.558 743.109, 457.448 741.550, 455.872 739.863 C 454.297 738.177, 453.300 736.323, 453.658 735.744 C 454.016 735.165, 453.837 734.983, 453.259 735.340 C 452.392 735.876, 451.097 734.116, 450.801 732 C 450.763 731.725, 449.884 730.907, 448.849 730.182 C 447.814 729.456, 447.226 728.444, 447.542 727.932 C 447.859 727.419, 447.696 727, 447.179 727 C 446.191 727, 438.377 717.105, 438.223 715.659 C 438.174 715.196, 437.472 714.296, 436.663 713.659 C 435.052 712.388, 425 700.338, 425 699.677 C 425 698.801, 413.268 687.235, 409 683.903 C 400.578 677.327, 394.687 676.445, 384.948 680.302 M 818.400 775.500 C 818.401 783.750, 818.556 786.992, 818.744 782.704 C 818.932 778.417, 818.931 771.667, 818.742 767.704 C 818.552 763.742, 818.399 767.250, 818.400 775.500 M 591.374 1735.500 C 591.376 1741.550, 591.541 1743.896, 591.740 1740.713 C 591.939 1737.531, 591.937 1732.581, 591.736 1729.713 C 591.535 1726.846, 591.372 1729.450, 591.374 1735.500" stroke="none" fill="#f8bd53" fill-rule="evenodd"></path><path d="M 967 101.632 C 942.985 106.378, 930.198 112.629, 913.906 127.587 C 909.539 131.596, 905.073 135.159, 903.981 135.506 C 902.695 135.914, 898.183 134.385, 891.164 131.164 C 869.976 121.439, 856.493 118.429, 838 119.296 C 808.863 120.663, 787.230 133.897, 770.453 160.619 C 757.755 180.846, 751.775 203.882, 749.977 239.500 C 748.615 266.471, 747.232 283.174, 746.284 284.089 C 745.853 284.505, 739.589 287.142, 732.365 289.948 C 709.162 298.963, 699.620 307.084, 692.580 323.809 C 687.520 335.833, 682.733 361.096, 680.040 390 C 679.451 396.325, 678.036 411.625, 676.895 424 C 674.296 452.210, 673.309 492.220, 674.916 504.291 C 678.130 528.445, 688.664 550.692, 710.291 579 C 725.391 598.766, 749.978 627.432, 791.228 673.367 C 802.522 685.944, 812.715 698.142, 813.880 700.474 C 817.731 708.185, 818.196 714.169, 819.005 766.500 C 819.648 808.072, 820.090 818.665, 821.397 823.800 C 825.595 840.298, 831.263 843.850, 867.061 852.421 C 895.780 859.296, 919.319 863.077, 956 866.705 C 969.974 868.087, 983.273 868.430, 1022 868.410 C 1065.259 868.387, 1072.715 868.144, 1091 866.155 C 1146.887 860.076, 1186.515 850.409, 1207.081 837.837 C 1215.785 832.516, 1216.099 830.381, 1216.960 770.500 C 1217.884 706.369, 1216.939 709.873, 1239.804 685.706 C 1273.782 649.792, 1288.048 628.514, 1302.319 592.467 C 1314.581 561.495, 1322.069 526.170, 1326.583 478 C 1329.906 442.539, 1329.534 336.760, 1325.934 293.222 C 1320.279 224.846, 1301.894 190.766, 1265.300 180.825 C 1254.327 177.844, 1232.800 177.862, 1218 180.864 C 1201.512 184.209, 1201.470 184.197, 1198.585 175.351 C 1191.062 152.280, 1160.095 133.785, 1122.356 129.823 C 1108.616 128.381, 1096.216 129.671, 1082.733 133.946 C 1065.870 139.292, 1064.735 139.146, 1054.859 130.375 C 1040.119 117.283, 1023.549 107.839, 1008.500 103.953 C 1002.600 102.430, 996.431 101.789, 985 101.512 C 976.475 101.306, 968.375 101.360, 967 101.632 M 966.760 144.558 C 953.385 147.800, 947.154 153.829, 941.142 169.348 C 934.161 187.367, 931.036 206.279, 931.038 230.500 C 931.041 256.126, 934.020 270.203, 940.903 277.109 C 943.875 280.090, 945.642 280.915, 951.067 281.856 C 982.410 287.292, 1006.673 308.738, 1015.150 338.500 C 1018.111 348.896, 1018.336 368.046, 1015.615 378 C 1013.552 385.541, 1007.841 397.709, 1002.006 406.994 C 997.242 414.573, 997.058 417.603, 1001.380 417.294 C 1006.272 416.944, 1014.792 411.061, 1016.994 406.511 C 1027.692 384.412, 1037.092 275.617, 1034.112 208.380 C 1032.407 169.905, 1031.397 164.993, 1023.654 157.500 C 1013.462 147.637, 1000.080 142.939, 982.590 143.083 C 977.041 143.129, 969.917 143.793, 966.760 144.558 M 832 165.107 C 828.975 165.587, 822.775 167.847, 818.222 170.130 C 803.511 177.506, 798.034 185.740, 795.029 205 C 793.556 214.444, 791.734 257.432, 792.499 264.715 C 793.271 272.070, 796.037 276.774, 801.013 279.199 C 808.951 283.067, 843.508 284.442, 855.936 281.385 C 887.324 273.664, 908.548 237.855, 901.489 204.529 C 897.926 187.711, 888.327 174.723, 875.750 169.703 C 863.642 164.870, 845.501 162.964, 832 165.107 M 1111.500 170.071 C 1102.534 171.291, 1089.018 175.652, 1084.576 178.757 C 1077.670 183.584, 1074.977 191.369, 1073.076 212 C 1069.695 248.672, 1069.169 377.008, 1072.338 391.737 C 1075.912 408.349, 1081.066 414.153, 1095.200 417.485 C 1105.178 419.838, 1114.476 419.456, 1121 416.426 C 1147.010 404.346, 1160.437 348.923, 1162.651 244.500 C 1163.167 220.127, 1163.008 214.144, 1161.650 207 C 1159.452 195.435, 1154.415 185.460, 1147.734 179.442 C 1141.581 173.898, 1136.914 171.709, 1127.918 170.145 C 1120.693 168.888, 1120.200 168.886, 1111.500 170.071 M 1228.763 222.007 C 1222.544 223.088, 1214.964 225.637, 1212.192 227.578 C 1205.155 232.507, 1202.306 246.715, 1194.464 316 C 1188.993 364.336, 1187.914 386.020, 1190.418 397.277 C 1193.674 411.912, 1201.241 422.953, 1211 427.312 C 1214.052 428.675, 1217.753 429.340, 1222.500 429.379 C 1228.391 429.428, 1230.604 428.919, 1236.474 426.166 C 1246.245 421.584, 1249.607 418.722, 1252.903 412.185 C 1260.132 397.844, 1270.319 359.092, 1276.472 322.528 C 1281.050 295.328, 1282.277 282.764, 1281.851 267.464 C 1281.513 255.353, 1281.280 254.057, 1278.310 247.777 C 1274.731 240.209, 1267.603 232.024, 1261.454 228.420 C 1252.127 222.954, 1238.590 220.299, 1228.763 222.007 M 807.500 322.068 C 777.906 323.459, 757.258 324.967, 751.719 326.142 C 732.524 330.214, 727.841 339.915, 723.544 384.500 C 722.643 393.850, 720.549 415.225, 718.889 432 C 713.613 485.348, 714.909 502.746, 725.779 524.500 C 734.538 542.028, 746.651 557.220, 801.530 619.500 C 845.969 669.933, 849.773 674.699, 855.409 687.017 C 860.692 698.563, 861.123 702.945, 861.899 753 C 862.534 793.939, 862.828 799.977, 864.358 803.486 C 868.229 812.368, 872.921 814.436, 900.500 819.424 C 937.405 826.099, 963.622 827.952, 1021.500 827.979 C 1076.333 828.004, 1094.666 826.607, 1131.500 819.595 C 1154.026 815.306, 1162.316 812.964, 1166.865 809.603 C 1175.533 803.199, 1175.965 800.422, 1175.984 750.974 C 1176.002 705.812, 1176.726 696.427, 1180.882 687.500 C 1183.814 681.203, 1185.865 678.924, 1207.874 657.500 C 1222.214 643.540, 1231.013 633.224, 1239.428 620.500 C 1264.732 582.239, 1277.885 539.816, 1283.453 478.500 C 1284.786 463.820, 1285.379 451.729, 1285.107 444.750 C 1284.955 440.844, 1282.892 441.267, 1277.125 446.389 C 1266.931 455.443, 1258.262 460.151, 1245.399 463.618 C 1235.084 466.399, 1214.253 466.162, 1203.557 463.142 C 1193.306 460.249, 1182.121 454.394, 1173.973 447.657 C 1163.797 439.245, 1163.779 439.240, 1157.157 443.296 C 1139.776 453.943, 1130.669 456.508, 1110.500 456.438 C 1089.718 456.366, 1078.590 453.172, 1059.383 441.768 C 1050.058 436.231, 1050.524 436.196, 1038.672 443.322 C 1024.865 451.624, 1014.748 454.531, 994.707 455.955 C 980.763 456.946, 979 457.302, 979 459.129 C 979 459.684, 983.389 464.720, 988.754 470.320 C 994.119 475.919, 1000.858 483.650, 1003.730 487.500 C 1015.920 503.843, 1027.363 527.995, 1032.631 548.500 C 1034.984 557.660, 1035.460 561.591, 1035.478 572 C 1035.498 583.147, 1035.244 585.020, 1033.136 589.302 C 1029.306 597.080, 1022.789 599.870, 1013.858 597.553 C 1004.592 595.149, 1001.963 590.523, 995.945 566.023 C 989.609 540.230, 983.128 525.090, 971.998 510.078 C 950.294 480.806, 918.994 463.999, 876 458.530 C 843.652 454.415, 836.862 452.655, 830.667 446.784 C 826.862 443.178, 826.760 442.906, 827.204 437.553 C 828.005 427.897, 834.447 420.639, 844.016 418.612 C 845.399 418.319, 856.649 417.597, 869.016 417.008 C 912.078 414.955, 933.163 411.114, 950.379 402.184 C 963.653 395.300, 972.244 385.199, 976.665 371.277 C 981.413 356.326, 979.563 345.355, 970.987 337.607 C 965.792 332.914, 961.107 330.635, 950.421 327.603 C 932.596 322.544, 921.534 321.681, 871.500 321.442 C 846.200 321.321, 817.400 321.603, 807.500 322.068 M 1520 591.489 C 1509.667 593.825, 1491.888 603.012, 1485.017 609.565 C 1468.321 625.490, 1460.807 657.557, 1440.513 799.500 C 1427.921 887.574, 1418.624 945.230, 1415.417 955.132 C 1413.595 960.759, 1412.181 962.032, 1404.632 964.840 C 1377.070 975.091, 1299.242 1035.210, 1278.853 1062 C 1272.883 1069.843, 1264.674 1086.259, 1262.599 1094.500 C 1257.062 1116.496, 1258.048 1137.246, 1266.944 1185.960 C 1272.465 1216.192, 1274.179 1230.362, 1274.267 1246.500 C 1274.402 1271.102, 1269.504 1286.538, 1253.472 1312.036 C 1228.279 1352.107, 1225.824 1357.361, 1227.827 1366.912 C 1229.496 1374.867, 1234.569 1381.754, 1249.920 1396.898 C 1289.308 1435.759, 1330.763 1464.960, 1383.500 1490.994 C 1421.312 1509.660, 1458.588 1523.200, 1500.500 1533.495 C 1527.997 1540.249, 1538.598 1542.248, 1547.528 1542.361 C 1561.920 1542.544, 1566.534 1537.563, 1593.561 1492.667 C 1607.112 1470.156, 1613.665 1461.608, 1620.684 1457.290 C 1623.369 1455.637, 1631.851 1451.920, 1639.533 1449.027 C 1684.952 1431.928, 1715.633 1412.902, 1745.961 1383.029 C 1780.519 1348.990, 1813.388 1301.567, 1850.985 1231.500 C 1869.909 1196.234, 1875.056 1186.903, 1881.323 1176.500 C 1894.911 1153.946, 1898.898 1138.699, 1896.893 1116.964 C 1895.803 1105.158, 1893.737 1097.642, 1888.519 1086.500 C 1878.967 1066.105, 1866.509 1055.356, 1846.715 1050.428 C 1842.828 1049.461, 1839.575 1048.048, 1839.097 1047.120 C 1838.639 1046.229, 1837.955 1041.450, 1837.577 1036.500 C 1837.200 1031.550, 1836.248 1024.693, 1835.462 1021.262 C 1833.672 1013.441, 1827.510 1001.236, 1821.616 993.836 C 1812.531 982.428, 1795.304 970.778, 1778.783 964.868 C 1773.299 962.906, 1770 961.189, 1770 960.296 C 1770 959.510, 1776.239 948.434, 1783.864 935.683 C 1819.523 876.052, 1881.611 768.204, 1888.014 754.772 C 1890.183 750.223, 1892.745 743.575, 1893.706 740 C 1896.056 731.267, 1896.018 712.895, 1893.634 704.169 C 1886.382 677.634, 1867.382 658.047, 1840.975 649.883 C 1835.048 648.051, 1831.119 647.565, 1822 647.536 C 1808.495 647.494, 1801.433 649.122, 1789.436 655.045 C 1781.690 658.870, 1773.173 666.219, 1765.732 675.500 C 1755.586 688.156, 1729.022 725.236, 1701.975 764.500 C 1668.047 813.751, 1633.926 863.713, 1628.359 872.292 C 1616.802 890.102, 1605.158 905, 1602.797 905 C 1601.711 905, 1601.804 887.341, 1603.006 865 C 1607.894 774.191, 1609.123 748.923, 1610.139 718.387 C 1611.409 680.193, 1610.441 651.879, 1607.478 640.500 C 1605.362 632.377, 1600.862 625.070, 1592.500 616.180 C 1581.802 604.806, 1569.186 597.037, 1554.829 592.980 C 1545.087 590.227, 1528.688 589.525, 1520 591.489 M 1524.882 633.326 C 1515.235 636.919, 1511.039 641.606, 1506.701 653.631 C 1502.538 665.171, 1496.317 698.710, 1489.567 746 C 1488.193 755.625, 1482.351 794.775, 1476.585 833 C 1462.102 929.016, 1461.687 932.165, 1462.297 941.304 C 1463.487 959.115, 1472.490 967.555, 1502 978.522 C 1508.875 981.078, 1532.500 989.256, 1554.500 996.697 C 1595.096 1010.427, 1627.825 1022.340, 1634.979 1025.989 C 1640.524 1028.818, 1642.780 1028.546, 1651.710 1023.967 C 1661.477 1018.959, 1671.396 1011.564, 1686.536 998 C 1708.248 978.550, 1718.206 966.026, 1736.234 935.500 C 1743.055 923.950, 1761.260 893.125, 1776.688 867 C 1811.492 808.069, 1825.805 783.165, 1835.752 764.238 C 1849.335 738.391, 1853.824 727.410, 1854.729 717.815 C 1855.191 712.920, 1854.903 711.510, 1852.654 707.673 C 1849.338 702.014, 1838.248 691.807, 1832.461 689.087 C 1815.164 680.956, 1801.851 693.089, 1758.490 756.500 C 1706.550 832.457, 1695.636 848.341, 1673.632 880 C 1625.283 949.564, 1609.017 970.612, 1597.455 978.576 C 1592.161 982.222, 1591.425 982.433, 1582.671 982.816 C 1564.388 983.615, 1561.658 979.911, 1559.962 952 C 1558.703 931.288, 1559.709 905.069, 1567.154 764.500 C 1569.709 716.253, 1570.247 658.965, 1568.208 652.237 C 1565.775 644.211, 1557.400 637.243, 1546.833 634.456 C 1538.592 632.282, 1529.009 631.789, 1524.882 633.326 M 388.505 636.600 C 380.185 638.456, 365.839 643.866, 359.233 647.639 C 351.284 652.180, 341.701 659.582, 336.854 664.925 C 334.186 667.866, 331.391 670, 330.208 670 C 329.037 670, 324.283 666.422, 319.068 661.616 C 304.153 647.870, 291.296 642.263, 272.500 641.306 C 248.123 640.066, 226.847 648.753, 209.749 666.929 C 201.556 675.638, 196.178 685.208, 193.423 695.981 C 191.196 704.691, 191.893 721.851, 194.845 730.993 C 196.485 736.071, 196.676 737.728, 195.721 738.593 C 195.049 739.202, 187.975 740.192, 180 740.793 C 156.248 742.585, 142.779 747.985, 129.892 760.885 C 114.152 776.639, 108.125 798.249, 112.490 823.281 C 115.165 838.623, 120.468 851.030, 132.078 869.108 C 139.484 880.640, 140.873 884.060, 138.814 885.687 C 138.091 886.258, 132.100 888.405, 125.500 890.457 C 90.438 901.362, 76.457 918.201, 78.293 947.316 C 79.376 964.493, 86.294 985.381, 99.550 1011.500 C 109.608 1031.316, 119.676 1047.908, 149.008 1093 C 163.140 1114.725, 188.116 1153.200, 204.511 1178.500 C 279.414 1294.092, 306.390 1331.227, 339.531 1364.369 C 373.600 1398.437, 404.970 1416.272, 459.337 1432.484 C 473.887 1436.822, 475.244 1438.523, 502.669 1486.784 C 523.771 1523.919, 529.556 1531.865, 537.058 1534.017 C 538.944 1534.558, 544.540 1534.996, 549.493 1534.992 C 607.257 1534.939, 693.854 1499.535, 763.500 1447.498 C 795.728 1423.418, 820.352 1398.630, 837.506 1373 C 854.441 1347.697, 853.597 1343.784, 820.608 1294.594 C 810.522 1279.555, 801.013 1264.682, 799.478 1261.544 C 795.619 1253.656, 795.877 1249.162, 800.876 1237.202 C 810.384 1214.456, 815.496 1198.378, 818.428 1182 C 824.758 1146.645, 823.052 1110.451, 811.006 1024.500 C 808.308 1005.250, 803.361 968.575, 800.012 943 C 791.975 881.623, 789.457 864.379, 785.995 847 C 777.310 803.409, 764.429 784.957, 739 779.680 C 709.269 773.511, 678.740 780.022, 661.418 796.225 C 642.830 813.614, 632.831 838.279, 628.487 877.455 C 626.699 893.583, 625.932 896, 622.601 896 C 615.934 896, 613.566 892.903, 527.018 771 C 475.456 698.374, 458.039 675.757, 439.612 657.500 C 419.427 637.502, 407.090 632.456, 388.505 636.600 M 388.844 677.347 C 380.726 680.350, 367.921 689.509, 364.274 694.922 C 361.392 699.198, 361.224 707.434, 363.862 715.093 C 370.868 735.434, 395.290 773.916, 463.439 872 C 488.014 907.369, 493.992 916.544, 498.653 926.039 C 507.661 944.393, 507.217 953.821, 497.202 956.821 C 491.870 958.419, 484.482 958.306, 481.200 956.577 C 470.260 950.812, 437.534 905.230, 348.321 771.500 C 311.833 716.804, 300.040 700.795, 288.333 690.068 C 279.996 682.429, 275.024 680, 267.722 680 C 253.269 680, 235.192 692.871, 233.464 704.392 C 232.445 711.185, 236.056 723.575, 243.403 738.500 C 250.607 753.133, 290.592 819.970, 343.310 905.500 C 348.056 913.200, 357.565 928.275, 364.442 939 C 396.635 989.206, 399.137 993.739, 399.814 1003.107 C 400.203 1008.477, 400.040 1008.950, 396.429 1012.947 C 392.384 1017.424, 386.417 1021, 382.990 1021 C 374.584 1021, 362.501 1006.360, 318.919 943.364 C 308.316 928.039, 295.981 910.325, 291.507 904 C 287.033 897.675, 275.544 881.250, 265.975 867.500 C 225.490 809.324, 209.116 789.191, 196.860 782.520 C 192.495 780.145, 190.962 779.833, 185.386 780.188 C 179.879 780.539, 177.116 781.529, 166.235 787.049 C 150.420 795.072, 148.645 797.171, 149.193 807.191 C 149.867 819.526, 162.170 841.126, 204.190 903.750 C 291.884 1034.445, 301.666 1049.506, 310.620 1067.625 C 316.935 1080.400, 318.481 1088.090, 315.616 1092.463 C 313.940 1095.021, 304.796 1100.159, 299.758 1101.373 C 291.377 1103.393, 281.549 1092.367, 245.500 1040.500 C 201.184 976.739, 194.284 967.207, 181.313 951.829 C 163.064 930.195, 150.022 923.202, 138.151 928.687 C 133.604 930.788, 121.585 942.933, 118.959 948.080 C 113.474 958.833, 119.372 972.040, 151.971 1022 C 184.632 1072.053, 248.495 1169.337, 267.509 1198 C 315.135 1269.794, 344.524 1309.146, 370.481 1335.878 C 405.247 1371.683, 434.421 1387.888, 475 1393.934 C 487.872 1395.851, 492.759 1397.694, 498.020 1402.615 C 505.524 1409.635, 514.471 1423.617, 540.501 1469 C 549.728 1485.088, 552.852 1489.227, 557.391 1491.381 C 562.425 1493.770, 564.971 1493.477, 586.170 1488.067 C 623.854 1478.451, 653.534 1467.322, 682.639 1451.895 C 719.946 1432.120, 745.001 1413.726, 773.921 1384.883 C 791.494 1367.356, 797.237 1360.565, 799.504 1354.630 C 803.195 1344.965, 800.311 1338.473, 776.128 1302 C 756.577 1272.512, 752.735 1265.210, 752.179 1256.474 C 751.714 1249.169, 752.776 1245.441, 760.713 1226.500 C 781.151 1177.729, 783.694 1151.809, 775.425 1076.500 C 774.036 1063.850, 771.584 1043.825, 769.977 1032 C 766.902 1009.382, 758.605 943.118, 752.510 892.500 C 748.086 855.763, 746.465 845.744, 743.316 835.680 C 738.805 821.264, 732.149 817.038, 716.197 818.462 C 698.596 820.033, 690.268 822.917, 683.856 829.665 C 671.816 842.336, 668.849 862.570, 667.019 944.500 C 666.003 989.984, 665.175 1000.710, 661.908 1010.681 C 659.393 1018.358, 656.381 1022.591, 643.538 1036.500 C 617.728 1064.452, 605.703 1083.641, 598.611 1108.189 C 594.558 1122.216, 592.901 1136.589, 592.003 1165.500 C 591.189 1191.735, 590.177 1200.812, 587.700 1204.087 C 583.109 1210.157, 569.742 1209.046, 561.648 1201.921 C 556.656 1197.527, 553.569 1191.163, 551.321 1180.633 C 549.114 1170.296, 550.087 1147.320, 553.403 1131.500 C 563.130 1085.082, 588.932 1035.330, 617.513 1007.878 C 625.148 1000.545, 627 997.540, 627 992.485 C 627 985.398, 619.119 970.850, 600.191 943 C 588.266 925.454, 495.534 793.489, 472.651 761.500 C 419.928 687.799, 403.954 671.758, 388.844 677.347 M 1415.846 1003.353 C 1405.874 1006.689, 1396.507 1013.264, 1359.500 1042.904 C 1318.585 1075.675, 1306.009 1090.129, 1301.389 1109.699 C 1298.669 1121.223, 1299.942 1141.330, 1305.429 1173.500 C 1312.865 1217.092, 1314.290 1229.270, 1314.322 1249.500 C 1314.354 1269.334, 1313.268 1276.412, 1307.827 1291.834 C 1303.678 1303.596, 1299.568 1311.520, 1287.286 1331.434 C 1275.766 1350.115, 1271 1358.994, 1271 1361.777 C 1271 1362.786, 1273.462 1366.595, 1276.471 1370.243 C 1305.748 1405.738, 1407.157 1464.124, 1478 1486.274 C 1494.369 1491.392, 1520.409 1497.969, 1527.050 1498.663 C 1538.312 1499.840, 1543.669 1495.552, 1554.868 1476.393 C 1570.621 1449.444, 1576.643 1440.459, 1584 1432.927 C 1593.046 1423.666, 1598.795 1420.581, 1622 1412.532 C 1650.864 1402.521, 1664.419 1396.303, 1681.456 1385.260 C 1711.445 1365.822, 1737.989 1336.708, 1769.221 1289 C 1783.550 1267.111, 1799.305 1240.971, 1798.596 1240.262 C 1798.301 1239.968, 1794.836 1242.375, 1790.897 1245.613 C 1786.957 1248.851, 1780.531 1254.106, 1776.617 1257.291 C 1769.448 1263.124, 1751.992 1272.377, 1742.500 1275.374 C 1732.385 1278.568, 1718.958 1280.260, 1708.500 1279.658 C 1695.961 1278.936, 1688.783 1277.094, 1678 1271.831 C 1658.981 1262.548, 1646 1242.944, 1646 1223.507 C 1646 1216.735, 1643.406 1214.493, 1631.500 1210.973 C 1626 1209.347, 1617.225 1205.921, 1612 1203.359 C 1604.247 1199.557, 1601.007 1197.210, 1594.385 1190.600 C 1585.964 1182.195, 1582.323 1176.360, 1579.553 1166.830 C 1576.889 1157.667, 1575.605 1157.120, 1549.444 1154.018 C 1529.098 1151.606, 1524.408 1151.495, 1523.672 1153.412 C 1523.374 1154.188, 1525.095 1160.601, 1527.495 1167.662 C 1537.623 1197.451, 1537.391 1229.591, 1526.815 1261.703 C 1516.062 1294.354, 1498.417 1309.881, 1482.600 1300.612 C 1477.113 1297.396, 1473.963 1293.143, 1473.276 1288.023 C 1472.593 1282.932, 1473.856 1279.571, 1480.982 1267.523 C 1491.166 1250.301, 1495 1237.175, 1495 1219.523 C 1495 1202.940, 1491.638 1189.078, 1483.874 1173.648 C 1476.581 1159.154, 1470.339 1151.122, 1452.836 1133.713 C 1433.442 1114.423, 1430 1110.141, 1430 1105.310 C 1430 1100.622, 1433.450 1094.306, 1437.290 1091.965 C 1442.854 1088.572, 1449.592 1089.480, 1473.788 1096.885 C 1490.553 1102.015, 1516.689 1108.428, 1531 1110.923 C 1571.302 1117.948, 1593.242 1115.208, 1608.121 1101.290 C 1618.512 1091.570, 1621.452 1077.576, 1615.611 1065.637 C 1612.357 1058.987, 1608.697 1055.700, 1602.281 1053.665 C 1565.795 1042.094, 1544.717 1035.261, 1502.850 1021.430 C 1475.542 1012.409, 1449.312 1004.122, 1444.561 1003.014 C 1433.368 1000.404, 1424.341 1000.511, 1415.846 1003.353 M 1751 1006.692 C 1738.859 1008.729, 1724.783 1017.314, 1696.583 1039.880 C 1673.374 1058.452, 1659 1073.559, 1659 1079.380 C 1659 1088.339, 1651.977 1105.297, 1643.214 1117.500 C 1640.449 1121.350, 1634.774 1128.219, 1630.603 1132.765 C 1621.387 1142.809, 1618 1149.034, 1618 1155.932 C 1618 1160.057, 1618.523 1161.526, 1620.993 1164.339 C 1624.906 1168.795, 1632.548 1172.001, 1640.838 1172.663 L 1647.500 1173.195 1656.500 1167.510 C 1687.171 1148.137, 1755.337 1093.501, 1781.584 1067.254 C 1792.268 1056.570, 1796.163 1049.650, 1796.808 1040.211 C 1797.359 1032.144, 1795.742 1026.503, 1791.162 1020.512 C 1782.950 1009.771, 1766.462 1004.097, 1751 1006.692 M 1827.971 1091.442 C 1814.873 1096.269, 1797.094 1108.278, 1765.500 1133.636 C 1723.843 1167.072, 1703.490 1184.385, 1696.117 1192.658 C 1689.754 1199.797, 1686.999 1205.528, 1687.006 1211.610 C 1687.026 1229.526, 1700.795 1242, 1720.552 1242 C 1729.984 1242, 1734.060 1240.439, 1745.763 1232.346 C 1798.399 1195.947, 1835.839 1161.722, 1850.207 1136.873 C 1856.403 1126.158, 1857.640 1120.269, 1855.467 1111.843 C 1853.257 1103.272, 1848.253 1094.126, 1844.532 1091.857 C 1840.971 1089.685, 1833.261 1089.492, 1827.971 1091.442 M 1297.500 1630.040 C 1292.550 1630.455, 1285.575 1631.312, 1282 1631.944 C 1242.800 1638.879, 1223.384 1663.737, 1225.331 1704.500 C 1226.260 1723.962, 1231.122 1736.712, 1242.083 1748.430 C 1253.105 1760.212, 1267.937 1768.515, 1294.918 1778.006 C 1325.337 1788.706, 1335.225 1793.942, 1341.204 1802.513 C 1348.948 1813.613, 1345.446 1837.787, 1335.088 1844.731 C 1327.270 1849.973, 1313.065 1851.542, 1302.865 1848.290 C 1292.003 1844.827, 1282.893 1832.336, 1281.277 1818.689 C 1280.962 1816.031, 1279.911 1812.876, 1278.942 1811.678 C 1277.236 1809.570, 1276.432 1809.490, 1253.788 1809.200 C 1231.226 1808.911, 1230.301 1808.975, 1227.698 1811.023 C 1224.465 1813.566, 1224.269 1816.544, 1226.591 1827.785 C 1230.764 1847.987, 1242.363 1864.623, 1259.441 1874.899 C 1274.151 1883.751, 1297.920 1888.667, 1321 1887.633 C 1352.043 1886.242, 1371.190 1879.715, 1384.416 1866.014 C 1396.331 1853.673, 1401.293 1839.261, 1401.293 1817 C 1401.293 1795.278, 1396.373 1780.816, 1384.756 1768.399 C 1372.575 1755.377, 1359.119 1748.008, 1325.992 1736.217 C 1302.835 1727.974, 1295.394 1724.384, 1288.921 1718.329 C 1282.234 1712.074, 1280.589 1707.345, 1281.224 1696.198 C 1282.038 1681.924, 1286.450 1674.256, 1296.368 1669.881 C 1303.713 1666.640, 1319.621 1666.534, 1325.553 1669.686 C 1334.470 1674.424, 1340.037 1683.284, 1342.154 1696.104 C 1344.168 1708.298, 1343.446 1708, 1371 1708 L 1394.091 1708 1396.614 1705.476 C 1398.933 1703.158, 1399.082 1702.487, 1398.443 1697.226 C 1395.742 1674.978, 1386.215 1657.052, 1371.206 1645.977 C 1359.282 1637.178, 1344.663 1632.263, 1323.789 1630.036 C 1313.226 1628.909, 1310.979 1628.909, 1297.500 1630.040 M 593.561 1634.294 C 591.662 1635.720, 591.621 1638.237, 591.561 1758.026 C 591.515 1849.760, 591.792 1880.701, 592.668 1881.901 C 593.665 1883.267, 597.086 1883.545, 616.128 1883.806 C 628.388 1883.974, 639.445 1883.854, 640.697 1883.540 C 645.829 1882.252, 645.862 1881.882, 644.970 1836.140 C 644.397 1806.790, 644.468 1793.068, 645.201 1791.458 C 647.034 1787.435, 650.706 1786.722, 667.311 1787.168 C 681.598 1787.552, 683.001 1787.766, 688.318 1790.367 C 694.507 1793.395, 697.687 1796.892, 701.220 1804.555 C 703.422 1809.331, 703.517 1810.711, 704 1844.840 L 704.500 1880.180 706.861 1882.090 C 709.043 1883.855, 711.101 1884, 734 1884 C 763.845 1884, 763.424 1884.145, 763.120 1874.014 C 763.015 1870.539, 762.728 1867.368, 762.480 1866.967 C 762.232 1866.567, 761.591 1853.923, 761.056 1838.869 C 760.023 1809.860, 759.232 1804.595, 754.360 1794.295 C 751.113 1787.432, 741.532 1777.609, 733.505 1772.914 C 730.207 1770.985, 727.373 1768.696, 727.205 1767.828 C 727.017 1766.848, 728.546 1765.284, 731.230 1763.711 C 744.257 1756.077, 755.075 1742.933, 759.244 1729.675 C 761.217 1723.399, 761.487 1720.496, 761.399 1706.500 C 761.285 1688.397, 759.521 1679.531, 753.748 1668.029 C 749.736 1660.038, 741.052 1650.614, 733.516 1646.077 C 725.764 1641.409, 713.413 1637.190, 702.004 1635.315 C 688.034 1633.018, 596.410 1632.155, 593.561 1634.294 M 910.400 1633.709 C 907.348 1635.903, 907.240 1639.168, 908.009 1706 C 908.437 1743.125, 908.614 1779.125, 908.404 1786 C 908.194 1792.875, 907.821 1816.661, 907.574 1838.858 L 907.126 1879.217 909.569 1881.660 L 912.012 1884.103 935.588 1883.801 C 957.764 1883.518, 959.250 1883.382, 960.614 1881.515 C 961.853 1879.819, 961.967 1873.199, 961.392 1836.015 C 960.730 1793.123, 960.750 1792.464, 962.770 1790 L 964.820 1787.500 991.160 1786.889 C 1018.354 1786.257, 1026.090 1785.290, 1039.500 1780.845 C 1062.534 1773.208, 1075.836 1756.712, 1080.057 1730.549 C 1081.841 1719.489, 1080.769 1693.788, 1078.100 1683.658 C 1075.105 1672.287, 1070.401 1663.471, 1063.348 1656.009 C 1055.914 1648.145, 1048.880 1643.754, 1037.340 1639.777 C 1021.192 1634.211, 1016.990 1633.853, 962 1633.366 C 934.225 1633.120, 911.005 1633.274, 910.400 1633.709 M 647.135 1673.556 C 645.310 1675.875, 645 1677.594, 644.998 1685.385 C 644.997 1690.398, 644.701 1705.601, 644.340 1719.169 L 643.684 1743.838 646.882 1747.035 L 650.079 1750.233 666.321 1749.841 C 681.721 1749.469, 682.862 1749.302, 688.349 1746.618 C 692.346 1744.662, 695.184 1742.351, 697.525 1739.143 C 710.083 1721.938, 709.049 1691.596, 695.479 1679.087 C 687.624 1671.847, 686.516 1671.540, 666.885 1671.172 L 649.269 1670.842 647.135 1673.556 M 964.789 1672.017 C 961.567 1673.973, 961.011 1679.938, 961.006 1712.639 C 961 1742.784, 961.118 1744.925, 962.909 1747.139 C 964.756 1749.422, 965.365 1749.510, 981.374 1749.817 C 1011.017 1750.384, 1020.551 1745.356, 1024.039 1727.313 C 1025.666 1718.898, 1024.792 1696.185, 1022.572 1689.190 C 1020.618 1683.034, 1015.385 1676.791, 1009.568 1673.678 C 1005.847 1671.686, 1003.834 1671.478, 986 1671.240 C 973.816 1671.077, 965.858 1671.369, 964.789 1672.017" stroke="none" fill="#083749" fill-rule="evenodd"></path><path d="M 966.324 144.991 C 957.127 147.402, 954.060 149.029, 950.005 153.647 C 939.564 165.539, 932.247 193.419, 931.280 225 C 930.168 261.331, 936.049 279.547, 949.500 281.432 C 979.915 285.695, 1004.146 305.903, 1014.275 335.451 C 1017.126 343.769, 1017.381 345.591, 1017.431 358 C 1017.498 374.481, 1015.388 383.057, 1007.950 396.537 C 998.605 413.470, 997.508 415.908, 998.695 417.095 C 1001.495 419.895, 1013.510 412.492, 1016.715 405.992 C 1032.150 374.693, 1041.023 189.137, 1028.323 163.243 C 1024.343 155.130, 1009.784 146.689, 995.114 143.991 C 986.823 142.466, 974.298 142.901, 966.324 144.991 M 831.274 165.491 C 826.632 166.333, 821.646 168.145, 817.332 170.557 C 798.292 181.205, 794.960 190.314, 793.014 237.030 C 791.666 269.379, 792.777 275.086, 801.240 279.297 C 808.131 282.725, 841.850 284.163, 854.163 281.553 C 875.804 276.966, 894.368 257.965, 900.423 234.202 C 905.246 215.277, 901.968 196.261, 891.405 181.871 C 884.803 172.877, 874.878 167.988, 858.078 165.456 C 846.650 163.733, 840.927 163.740, 831.274 165.491 M 1100.658 172.522 C 1084.199 177.131, 1079.581 180.743, 1076.478 191.437 C 1072.470 205.251, 1070.875 240.518, 1070.664 320 C 1070.515 375.770, 1070.668 382.328, 1072.307 390.382 C 1075.819 407.647, 1080.431 413.278, 1094.074 416.959 C 1104.436 419.756, 1115.276 419.481, 1121.500 416.264 C 1145.759 403.725, 1158.006 357.036, 1162.097 261.500 C 1163.411 230.821, 1162.890 211.235, 1160.528 202.500 C 1156.606 187.996, 1150.001 179.095, 1139.220 173.787 C 1132.977 170.713, 1131.797 170.485, 1121.022 170.273 C 1111.347 170.082, 1108.083 170.442, 1100.658 172.522 M 1223 223.370 C 1220.525 224.083, 1216.820 225.465, 1214.766 226.440 C 1205.441 230.867, 1203.103 241.419, 1194.477 318 C 1187.366 381.125, 1187.464 394.930, 1195.131 410.449 C 1205.056 430.536, 1225.274 434.916, 1245.102 421.274 C 1252.608 416.110, 1258.879 400.726, 1266.904 367.794 C 1276.513 328.363, 1281.310 297.038, 1281.420 273 C 1281.493 257.063, 1281.300 255.009, 1279.257 250 C 1274.709 238.848, 1264.958 229.128, 1254 224.826 C 1247.209 222.160, 1230.004 221.352, 1223 223.370 M 802.500 322.506 C 752.069 324.925, 743.634 326.358, 736.490 333.714 C 729.994 340.402, 726.587 354.266, 723.516 386.500 C 722.625 395.850, 720.696 414.975, 719.228 429 C 715.857 461.219, 715.432 494.634, 718.262 504.879 C 725.371 530.611, 736.286 545.658, 800.622 618.425 C 845.647 669.351, 850.765 675.680, 855.370 686.129 C 860.958 698.809, 861.639 707.589, 863.233 787.500 C 863.721 811.931, 864.512 812.576, 902.482 819.496 C 937.550 825.887, 966.650 827.976, 1020.789 827.991 C 1053.595 828, 1079.379 826.971, 1098 824.910 C 1112.438 823.311, 1149.515 816.157, 1158.255 813.282 C 1166.974 810.415, 1171.939 806.038, 1174.091 799.321 C 1174.946 796.654, 1175.514 780.854, 1175.972 747 C 1176.831 683.464, 1175.062 688.919, 1203.710 661.465 C 1221.228 644.677, 1229.108 635.554, 1239.412 620.131 C 1266.657 579.353, 1281.881 524.718, 1284.659 457.750 C 1285.226 444.091, 1285.113 442, 1283.805 442 C 1282.975 442, 1279.296 444.649, 1275.629 447.887 C 1262.662 459.334, 1248.304 464.813, 1229 465.682 C 1207.406 466.654, 1189.449 460.785, 1173.610 447.579 C 1168.265 443.122, 1164.878 441.007, 1163.110 441.021 C 1161.674 441.033, 1157.381 443.063, 1153.569 445.532 C 1128.115 462.021, 1089.844 460.822, 1060.640 442.620 C 1056.563 440.079, 1052.040 438, 1050.587 438 C 1049.134 438, 1043.894 440.443, 1038.942 443.428 C 1024.913 451.886, 1013.670 455.009, 992 456.470 C 981.470 457.180, 979 457.677, 979 459.088 C 979 459.613, 983.403 464.645, 988.784 470.271 C 1000.291 482.300, 1005.806 489.368, 1012.830 501.088 C 1023.275 518.513, 1031.298 538.984, 1034.543 556.486 C 1036.844 568.892, 1036.230 583.893, 1033.183 589.735 C 1029.753 596.312, 1023.225 599.539, 1015.763 598.346 C 1006.280 596.830, 1001.725 590.099, 996.922 570.502 C 988.172 534.799, 979.607 517.080, 962.298 498.878 C 939.363 474.760, 911.037 462.407, 867.500 457.537 C 850.501 455.635, 849.164 455.396, 841.157 452.817 C 830.322 449.329, 824.846 442.511, 826.959 435.142 C 828.407 430.095, 833.911 422.097, 837.057 420.470 C 840.436 418.723, 853.329 417.327, 873.500 416.523 C 940.198 413.867, 969.090 400.454, 977.429 368.276 C 983.069 346.508, 974.314 334.071, 948.496 327.173 C 932.450 322.886, 918.270 321.817, 873 321.479 C 847.051 321.286, 819.595 321.685, 802.500 322.506" stroke="none" fill="#e3743e" fill-rule="evenodd"></path></svg><style>@media (prefers-color-scheme: light) { :root { filter: none; } }
@media (prefers-color-scheme: dark) { :root { filter: invert(100%); } }
</style></svg>